<svg xmlns="http://www.w3.org/2000/svg" version="1.1" xmlns:xlink="http://www.w3.org/1999/xlink" xmlns:svgjs="http://svgjs.dev/svgjs" width="1000" height="287" viewBox="0 0 1000 287"><g transform="matrix(1,0,0,1,-0.6060606060606233,-0.6225709410119862)"><svg viewBox="0 0 396 114" data-background-color="#ffffff" preserveAspectRatio="xMidYMid meet" height="287" width="1000" xmlns="http://www.w3.org/2000/svg" xmlns:xlink="http://www.w3.org/1999/xlink"><g id="tight-bounds" transform="matrix(1,0,0,1,0.2400000000000091,0.2472929870221776)"><svg viewBox="0 0 395.52 113.50522900096013" height="113.50522900096013" width="395.52"><g><svg viewBox="0 0 593.6872754333151 170.3747222719825" height="113.50522900096013" width="395.52"><g transform="matrix(1,0,0,1,198.16727543331513,61.64193240851993)"><svg viewBox="0 0 395.52 47.09085745494265" height="47.09085745494265" width="395.52"><g id="textblocktransform"><svg viewBox="0 0 395.52 47.09085745494265" height="47.09085745494265" width="395.52" id="textblock"><g><svg viewBox="0 0 395.52 47.09085745494265" height="47.09085745494265" width="395.52"><g transform="matrix(1,0,0,1,0,0)"><svg width="395.52" viewBox="2.5 -32.099998474121094 274.6300048828125 32.69999694824219" height="47.09085745494265" data-palette-color="#89939e"><path d="M12.4 0.6L12.4 0.6Q9.1 0.6 5.8-1.2L5.8-1.2Q4.7-1.75 4.3-1.75L4.3-1.75Q3.55-1.75 3.5-0.7L3.5-0.7 3.45 0 2.5 0 2.5-8.35 3.4-8.35Q3.85-4.5 6.28-2.68 8.7-0.85 12.03-0.85 15.35-0.85 17.07-2.65 18.8-4.45 18.8-6.9L18.8-6.9Q18.8-10.8 14.3-12.8L14.3-12.8 8.35-15.45Q5.65-16.65 4.3-18.73 2.95-20.8 2.95-23.2L2.95-23.2Q2.95-26.85 5.4-29.48 7.85-32.1 12.45-32.1L12.45-32.1Q15.15-32.1 18-30.3L18-30.3Q18.95-29.75 19.3-29.75L19.3-29.75Q19.95-29.75 20-30.8L20-30.8 20.05-31.8 21-31.8 21-23.15 20.1-23.15Q19.7-27 17.63-28.83 15.55-30.65 12.58-30.65 9.6-30.65 7.98-29.03 6.35-27.4 6.35-25.33 6.35-23.25 7.48-21.6 8.6-19.95 10.8-19L10.8-19 16.8-16.35Q19.8-15 21.33-12.83 22.85-10.65 22.85-8.15L22.85-8.15Q22.85-4.6 20-2 17.15 0.6 12.4 0.6ZM29.65-1.6L29.65-1.6 29.65-30Q29.65-30.6 28.95-30.6L28.95-30.6 26.6-30.6 26.6-31.5 36.8-31.5 36.8-30.6 34.45-30.6Q33.75-30.6 33.75-30L33.75-30 33.75-1.6Q33.75-0.9 34.45-0.9L34.45-0.9 36.8-0.9 36.8 0 26.6 0 26.6-0.9 28.95-0.9Q29.65-0.9 29.65-1.6ZM65.45 0L63.84 0 45.05-27.9 45.05-1.6Q45.05-0.9 45.75-0.9L45.75-0.9 48.09-0.9 48.09 0 40.3 0 40.3-0.9 42.65-0.9Q43.34-0.9 43.34-1.6L43.34-1.6 43.34-30Q43.34-30.6 42.65-30.6L42.65-30.6 40.3-30.6 40.3-31.5 47.65-31.5 63.75-7.7 63.75-29.9Q63.75-30.6 63.05-30.6L63.05-30.6 60.7-30.6 60.7-31.5 68.5-31.5 68.5-30.6 66.15-30.6Q65.45-30.6 65.45-30L65.45-30 65.45 0ZM86.09-30.65L86.09-30.65Q81.54-30.65 78.77-26.65 75.99-22.65 75.99-15.7 75.99-8.75 78.79-4.8 81.59-0.85 85.82-0.85 90.04-0.85 91.72-3.03 93.39-5.2 93.39-9.4L93.39-9.4 93.39-11.4Q93.39-12 92.69-12L92.69-12 89.34-12 89.34-12.9 99.54-12.9 99.54-12 98.19-12Q97.49-12 97.49-11.4L97.49-11.4 97.49-9.6Q97.49-5.15 94.29-2.27 91.09 0.6 86.09 0.6L86.09 0.6Q79.79 0.6 75.77-3.75 71.74-8.1 71.74-15.73 71.74-23.35 75.72-27.73 79.69-32.1 86.09-32.1L86.09-32.1Q89.34-32.1 92.59-30.45L92.59-30.45Q93.64-29.9 94.09-29.9L94.09-29.9Q94.84-29.9 94.89-30.95L94.89-30.95 94.94-31.8 95.89-31.8 95.89-23.15 94.99-23.15Q94.54-27 92.12-28.83 89.69-30.65 86.09-30.65ZM123.04-1.6L123.04-1.6 123.04-15.05 108.44-15.05 108.44-1.6Q108.44-0.9 109.14-0.9L109.14-0.9 111.49-0.9 111.49 0 101.29 0 101.29-0.9 103.64-0.9Q104.34-0.9 104.34-1.6L104.34-1.6 104.34-30Q104.34-30.6 103.64-30.6L103.64-30.6 101.29-30.6 101.29-31.5 111.49-31.5 111.49-30.6 109.14-30.6Q108.44-30.6 108.44-29.9L108.44-29.9 108.44-16.45 123.04-16.45 123.04-29.9Q123.04-30.6 122.34-30.6L122.34-30.6 119.99-30.6 119.99-31.5 130.19-31.5 130.19-30.6 127.84-30.6Q127.14-30.6 127.14-30L127.14-30 127.14-1.6Q127.14-0.9 127.84-0.9L127.84-0.9 130.19-0.9 130.19 0 119.99 0 119.99-0.9 122.34-0.9Q123.04-0.9 123.04-1.6ZM159.13 0L146.19 0 146.19-0.9 148.53-0.9Q149.24-0.9 149.24-1.5L149.24-1.5 149.24-30Q149.24-30.6 148.53-30.6L148.53-30.6 146.19-30.6 146.19-31.5 157.88-31.5Q161.63-31.5 164.31-29.45 166.99-27.4 166.99-24.15L166.99-24.15Q166.99-21.65 165.66-19.78 164.34-17.9 162.13-16.95L162.13-16.95Q165.28-16.25 167.26-14.1 169.24-11.95 169.24-8.38 169.24-4.8 166.28-2.4 163.34 0 159.13 0L159.13 0ZM158.88-16.05L158.88-16.05 153.34-16.05 153.34-1.4 158.88-1.4Q161.88-1.4 163.56-3.6 165.24-5.8 165.24-8.75 165.24-11.7 163.56-13.88 161.88-16.05 158.88-16.05ZM156.84-30.1L156.84-30.1 153.34-30.1 153.34-17.3 157.13-17.3Q160.09-17.3 161.53-19.3 162.99-21.3 162.99-23.98 162.99-26.65 161.49-28.38 159.99-30.1 156.84-30.1ZM187.03 0L171.73 0 171.73-0.9 174.08-0.9Q174.78-0.9 174.78-1.6L174.78-1.6 174.78-30Q174.78-30.6 174.08-30.6L174.08-30.6 171.73-30.6 171.73-31.5 181.93-31.5 181.93-30.6 179.58-30.6Q178.88-30.6 178.88-30L178.88-30 178.88-1.4 188.83-1.4Q190.13-1.4 190.23-2.5L190.23-2.5 190.98-8.35 192.13-8.35 192.13-6Q192.13-1.6 192.58 0.45L192.58 0.45Q190.98 0 187.03 0L187.03 0ZM198.31-3.75Q194.33-8.1 194.33-15.75 194.33-23.4 198.31-27.75 202.28-32.1 208.66-32.1 215.03-32.1 219.01-27.75 222.98-23.4 222.98-15.75 222.98-8.1 219.01-3.75 215.03 0.6 208.66 0.6 202.28 0.6 198.31-3.75ZM201.46-26.75Q198.58-22.7 198.58-15.75 198.58-8.8 201.46-4.75 204.33-0.7 208.63-0.7 212.93-0.7 215.83-4.75 218.73-8.8 218.73-15.75 218.73-22.7 215.83-26.75 212.93-30.8 208.63-30.8 204.33-30.8 201.46-26.75ZM240.83-30.65L240.83-30.65Q236.28-30.65 233.5-26.65 230.73-22.65 230.73-15.7 230.73-8.75 233.53-4.8 236.33-0.85 240.55-0.85 244.78-0.85 246.45-3.03 248.13-5.2 248.13-9.4L248.13-9.4 248.13-11.4Q248.13-12 247.43-12L247.43-12 244.08-12 244.08-12.9 254.28-12.9 254.28-12 252.93-12Q252.23-12 252.23-11.4L252.23-11.4 252.23-9.6Q252.23-5.15 249.03-2.27 245.83 0.6 240.83 0.6L240.83 0.6Q234.53 0.6 230.5-3.75 226.48-8.1 226.48-15.73 226.48-23.35 230.45-27.73 234.43-32.1 240.83-32.1L240.83-32.1Q244.08-32.1 247.33-30.45L247.33-30.45Q248.38-29.9 248.83-29.9L248.83-29.9Q249.58-29.9 249.63-30.95L249.63-30.95 249.68-31.8 250.63-31.8 250.63-23.15 249.73-23.15Q249.28-27 246.85-28.83 244.43-30.65 240.83-30.65ZM266.68 0.6L266.68 0.6Q263.38 0.6 260.08-1.2L260.08-1.2Q258.98-1.75 258.58-1.75L258.58-1.75Q257.83-1.75 257.78-0.7L257.78-0.7 257.73 0 256.78 0 256.78-8.35 257.68-8.35Q258.13-4.5 260.55-2.68 262.98-0.85 266.3-0.85 269.63-0.85 271.35-2.65 273.08-4.45 273.08-6.9L273.08-6.9Q273.08-10.8 268.58-12.8L268.58-12.8 262.63-15.45Q259.93-16.65 258.58-18.73 257.23-20.8 257.23-23.2L257.23-23.2Q257.23-26.85 259.68-29.48 262.13-32.1 266.73-32.1L266.73-32.1Q269.43-32.1 272.28-30.3L272.28-30.3Q273.23-29.75 273.58-29.75L273.58-29.75Q274.23-29.75 274.28-30.8L274.28-30.8 274.33-31.8 275.28-31.8 275.28-23.15 274.38-23.15Q273.98-27 271.9-28.83 269.83-30.65 266.85-30.65 263.88-30.65 262.25-29.03 260.63-27.4 260.63-25.33 260.63-23.25 261.75-21.6 262.88-19.95 265.08-19L265.08-19 271.08-16.35Q274.08-15 275.6-12.83 277.13-10.65 277.13-8.15L277.13-8.15Q277.13-4.6 274.28-2 271.43 0.6 266.68 0.6Z" opacity="1" transform="matrix(1,0,0,1,0,0)" fill="#89939e" class="undefined-text-0" data-fill-palette-color="primary" id="text-0"></path></svg></g></svg></g></svg></g></svg></g><g><svg viewBox="0 0 170.3747222719825 170.3747222719825" height="170.3747222719825" width="170.3747222719825"><g><svg viewBox="0 0 170.3747222719825 170.3747222719825" height="170.3747222719825" width="170.3747222719825"><g transform="matrix(1,0,0,1,54.114027391617384,45.02965398222674)"><svg viewBox="0 0 62.14666748874774 80.31541430752902" height="80.31541430752902" width="62.14666748874774"><g><svg xmlns="http://www.w3.org/2000/svg" xmlns:xlink="http://www.w3.org/1999/xlink" version="1.1" x="0" y="0" viewBox="12.982999801635742 1 75.68599700927734 97.81300354003906" enable-background="new 0 0 100 100" xml:space="preserve" height="80.31541430752902" width="62.14666748874774" class="icon-s-0" data-fill-palette-color="accent" id="s-0"><g fill="#89939e" data-fill-palette-color="accent"><polygon fill-rule="evenodd" clip-rule="evenodd" points="12.983,10.59 30.001,98.813 24.129,39.764 53.15,37.872 53.096,27.989    64.549,1 53.622,18.977  " fill="#89939e" data-fill-palette-color="accent"></polygon><polygon fill-rule="evenodd" clip-rule="evenodd" points="59.389,54.548 64.549,1.007 55.809,40.723 36.197,41.768 37.767,62.23    30.001,98.813 42.058,58.914  " fill="#89939e" data-fill-palette-color="accent"></polygon><polygon fill-rule="evenodd" clip-rule="evenodd" points="62.8,67.182 63.349,56.729 47.37,60.484 47.338,72.281 30.001,98.813    51.681,71.197  " fill="#89939e" data-fill-palette-color="accent"></polygon><polygon fill-rule="evenodd" clip-rule="evenodd" points="65.711,62.394 80.552,57.663 82.061,45.131 66.162,47.226  " fill="#89939e" data-fill-palette-color="accent"></polygon><polygon fill-rule="evenodd" clip-rule="evenodd" points="72.07,44.502 83.058,43.085 84.639,32.807 76.56,32.434 64.549,1    72.979,31.967  " fill="#89939e" data-fill-palette-color="accent"></polygon><polygon fill-rule="evenodd" clip-rule="evenodd" points="87.413,31.294 88.669,21.788 79.125,19.094 64.549,1 79.032,23.437    78.61,30.437  " fill="#89939e" data-fill-palette-color="accent"></polygon></g></svg></g></svg></g><path d="M5.564 114.467v0c-0.305-0.932-0.356-1.944-0.155-3.034v0c0.051-0.363 0.059-0.599 0.023-0.707v0c-0.069-0.211-0.253-0.278-0.553-0.201v0l-0.303 0.078-0.132-0.402 3.524-1.153 0.126 0.383c-1.044 0.483-1.709 1.149-1.997 2-0.294 0.852-0.288 1.745 0.017 2.676 0.307 0.939 0.795 1.567 1.464 1.885 0.663 0.32 1.339 0.368 2.029 0.143v0c1.098-0.359 1.722-1.263 1.87-2.711v0l0.297-2.885c0.09-0.87 0.367-1.59 0.831-2.159 0.456-0.573 1.022-0.97 1.699-1.192v0c1.028-0.336 2.025-0.281 2.991 0.167 0.96 0.449 1.652 1.322 2.076 2.619v0c0.248 0.76 0.252 1.624 0.01 2.593v0c-0.066 0.318-0.083 0.525-0.051 0.622v0c0.061 0.185 0.24 0.236 0.538 0.152v0l0.427-0.118 0.132 0.402-3.649 1.193-0.125-0.383c1.05-0.463 1.734-1.072 2.053-1.827 0.327-0.75 0.353-1.547 0.077-2.389-0.274-0.836-0.714-1.406-1.322-1.709-0.61-0.309-1.206-0.369-1.787-0.179-0.587 0.192-1.062 0.524-1.423 0.995-0.357 0.463-0.569 1.048-0.635 1.756v0l-0.291 2.904c-0.107 0.968-0.395 1.765-0.861 2.391-0.471 0.635-1.061 1.068-1.769 1.3v0c-0.996 0.326-1.993 0.206-2.99-0.358-0.991-0.566-1.705-1.517-2.141-2.852zM13.427 129.522v0l10.869-6.405c0.15-0.089 0.173-0.223 0.067-0.402v0l-0.532-0.903 0.347-0.204 2.302 3.906-0.347 0.205-0.532-0.903c-0.106-0.179-0.234-0.225-0.385-0.136v0l-10.868 6.405c-0.179 0.106-0.216 0.248-0.111 0.428v0l0.532 0.902-0.347 0.205-2.302-3.906 0.347-0.205 0.532 0.903c0.106 0.179 0.248 0.216 0.428 0.11zM28.765 149.491l-0.489-0.509 3.148-14.611-8.42 8.093c-0.15 0.144-0.155 0.289-0.016 0.434v0l0.726 0.756-0.29 0.279-2.402-2.499 0.29-0.279 0.726 0.755c0.144 0.15 0.292 0.153 0.442 0.009v0l9.096-8.742c0.126-0.121 0.117-0.257-0.028-0.407v0l-0.726-0.755 0.29-0.279 2.263 2.353-2.664 12.483 7.105-6.829c0.15-0.144 0.153-0.292 0.009-0.442v0l-0.719-0.748 0.291-0.279 2.401 2.499-0.29 0.279-0.726-0.755c-0.144-0.15-0.279-0.165-0.406-0.044v0zM50.942 148.549v0c-1.169-0.676-2.406-0.704-3.71-0.084-1.301 0.614-2.468 1.813-3.5 3.599-1.028 1.78-1.477 3.382-1.347 4.808 0.133 1.435 0.74 2.464 1.823 3.089 1.082 0.625 1.999 0.783 2.752 0.474 0.753-0.31 1.44-1.002 2.062-2.079v0l0.449-0.776c0.087-0.151 0.041-0.279-0.139-0.383v0l-1.292-0.747 0.202-0.349 3.926 2.269-0.202 0.349-0.523-0.302c-0.174-0.101-0.305-0.076-0.393 0.075v0l-0.403 0.698c-0.659 1.14-1.612 1.842-2.859 2.107-1.249 0.256-2.514 0.014-3.793-0.726v0c-1.617-0.934-2.619-2.254-3.007-3.96-0.39-1.715-0.02-3.55 1.109-5.504 1.133-1.96 2.532-3.207 4.199-3.741 1.669-0.525 3.324-0.314 4.964 0.634v0c0.832 0.481 1.545 1.172 2.14 2.075v0c0.184 0.3 0.333 0.484 0.45 0.551v0c0.192 0.111 0.373 0.033 0.543-0.234v0l0.204-0.313 0.366 0.212-1.921 3.324-0.349-0.202c0.461-1.053 0.515-1.991 0.161-2.816-0.35-0.831-0.988-1.513-1.912-2.048zM68.577 168.772v0l1.473-5.79-6.288-1.6-1.474 5.79c-0.051 0.202 0.024 0.328 0.226 0.38v0l1.015 0.258-0.099 0.391-4.394-1.118 0.099-0.391 1.016 0.259c0.202 0.051 0.328-0.024 0.379-0.226v0l3.111-12.226c0.043-0.169-0.036-0.28-0.238-0.331v0l-1.016-0.258 0.1-0.391 4.394 1.118-0.099 0.391-1.016-0.259c-0.202-0.051-0.328 0.024-0.38 0.226v0l-1.473 5.791 6.289 1.6 1.473-5.791c0.051-0.202-0.024-0.328-0.226-0.38v0l-1.005-0.255 0.099-0.391 4.394 1.118-0.099 0.391-1.016-0.259c-0.202-0.051-0.324 0.008-0.367 0.177v0l-3.111 12.226c-0.051 0.202 0.024 0.328 0.226 0.38v0l1.016 0.258-0.1 0.391-4.394-1.118 0.099-0.391 1.006 0.256c0.202 0.051 0.328-0.024 0.38-0.226zM102.959 169.245l-5.641 1.13-0.079-0.395 1.027-0.206c0.204-0.041 0.289-0.147 0.255-0.318v0l-2.486-12.42c-0.034-0.171-0.154-0.236-0.358-0.195v0l-1.027 0.205-0.079-0.395 5.098-1.02c1.087-0.218 2.078-0.108 2.974 0.329 0.897 0.444 1.44 1.137 1.629 2.079v0c0.145 0.725 0.081 1.398-0.192 2.021-0.279 0.624-0.711 1.139-1.294 1.544v0c0.955 0.014 1.782 0.277 2.48 0.788 0.705 0.51 1.162 1.285 1.37 2.325 0.207 1.034-0.051 1.987-0.774 2.858-0.717 0.87-1.684 1.426-2.903 1.67zM101.451 162.272v0l-2.421 0.485 1.278 6.382 2.42-0.484c0.869-0.174 1.484-0.629 1.844-1.366 0.36-0.736 0.454-1.533 0.282-2.389-0.171-0.856-0.564-1.552-1.178-2.087-0.614-0.535-1.356-0.715-2.225-0.541zM99.337 156.334v0l-1.531 0.307 1.115 5.572 1.66-0.332c0.856-0.171 1.437-0.589 1.743-1.253 0.306-0.664 0.38-1.385 0.225-2.162-0.156-0.777-0.501-1.373-1.036-1.786-0.535-0.414-1.26-0.529-2.176-0.346zM123.523 161.925l-6.151 2.902-0.172-0.365 0.947-0.447c0.188-0.089 0.238-0.227 0.15-0.416v0l-5.383-11.409c-0.075-0.158-0.206-0.193-0.394-0.104v0l-0.948 0.447-0.172-0.364 4.101-1.935 0.172 0.365-0.948 0.447c-0.188 0.089-0.245 0.212-0.17 0.37v0l5.421 11.491 4-1.887c0.352-0.166 0.472-0.401 0.359-0.704v0l-0.808-2.493 0.464-0.219 0.443 0.939c0.556 1.179 1.025 2.016 1.408 2.511v0c-0.489 0.082-1.262 0.372-2.319 0.871zM134.704 152.827c-1.729-0.238-3.32-1.229-4.774-2.973-1.45-1.739-2.136-3.48-2.059-5.223 0.087-1.743 0.855-3.218 2.305-4.427 1.45-1.209 3.037-1.697 4.761-1.464 1.729 0.238 3.318 1.226 4.768 2.965 1.454 1.744 2.142 3.488 2.065 5.231-0.081 1.738-0.847 3.212-2.297 4.421-1.45 1.209-3.04 1.699-4.769 1.47zM129.231 144.075c0.12 1.466 0.838 2.988 2.154 4.566 1.321 1.584 2.691 2.567 4.111 2.949 1.421 0.372 2.622 0.15 3.602-0.668 0.975-0.813 1.41-1.954 1.305-3.423-0.11-1.474-0.825-3.003-2.146-4.587-1.316-1.579-2.69-2.555-4.12-2.928-1.426-0.368-2.627-0.145-3.601 0.668-0.98 0.817-1.415 1.958-1.305 3.423zM143.805 125.675v0c-0.753 1.121-0.865 2.353-0.335 3.696 0.524 1.34 1.642 2.585 3.353 3.735 1.706 1.147 3.274 1.703 4.706 1.67 1.44-0.036 2.509-0.572 3.206-1.609 0.697-1.037 0.917-1.942 0.658-2.714-0.258-0.772-0.903-1.505-1.934-2.198v0l-0.744-0.5c-0.145-0.097-0.276-0.06-0.392 0.113v0l-0.832 1.237-0.334-0.224 2.529-3.764 0.335 0.225-0.337 0.502c-0.112 0.167-0.096 0.3 0.048 0.397v0l0.669 0.45c1.093 0.734 1.729 1.733 1.909 2.994 0.17 1.264-0.157 2.509-0.981 3.736v0c-1.042 1.55-2.427 2.46-4.155 2.731-1.737 0.273-3.543-0.22-5.416-1.479-1.879-1.263-3.028-2.744-3.449-4.443-0.411-1.701-0.088-3.337 0.969-4.909v0c0.536-0.797 1.274-1.462 2.216-1.995v0c0.312-0.163 0.505-0.3 0.58-0.412v0c0.124-0.184 0.058-0.37-0.197-0.557v0l-0.298-0.224 0.236-0.352 3.186 2.142-0.224 0.335c-1.019-0.531-1.952-0.648-2.799-0.352-0.853 0.293-1.577 0.883-2.173 1.769zM164.656 114.601v0c-0.328 0.924-0.905 1.756-1.732 2.496v0c-0.262 0.256-0.412 0.438-0.45 0.546v0c-0.074 0.209 0.031 0.375 0.315 0.497v0l0.288 0.124-0.142 0.398-3.494-1.241 0.135-0.38c1.121 0.256 2.055 0.135 2.802-0.362 0.753-0.495 1.294-1.205 1.622-2.129 0.331-0.931 0.328-1.726-0.007-2.388-0.329-0.659-0.836-1.109-1.519-1.352v0c-1.089-0.387-2.134-0.052-3.137 1.003v0l-1.998 2.103c-0.603 0.634-1.262 1.034-1.977 1.201-0.711 0.175-1.402 0.144-2.073-0.095v0c-1.019-0.362-1.774-1.015-2.266-1.959-0.485-0.942-0.499-2.056-0.043-3.341v0c0.268-0.753 0.793-1.44 1.577-2.06v0c0.246-0.212 0.386-0.365 0.42-0.46v0c0.065-0.184-0.046-0.333-0.333-0.45v0l-0.411-0.167 0.142-0.399 3.618 1.285-0.135 0.38c-1.114-0.275-2.028-0.211-2.742 0.192-0.717 0.394-1.224 1.009-1.521 1.844-0.295 0.829-0.294 1.55 0.003 2.161 0.294 0.618 0.729 1.029 1.304 1.233 0.582 0.207 1.161 0.234 1.736 0.082 0.566-0.148 1.091-0.482 1.575-1.002v0l2.004-2.122c0.677-0.701 1.391-1.156 2.143-1.366 0.761-0.215 1.492-0.197 2.195 0.052v0c0.987 0.351 1.704 1.054 2.148 2.11 0.438 1.054 0.423 2.242-0.047 3.566z" fill="#89939e" data-fill-palette-color="accent"></path><path d="M14.98 63.055V63.055C14.682 63.968 14.135 64.8 13.34 65.551V65.551C13.087 65.808 12.942 65.991 12.907 66.099V66.099C12.84 66.304 12.951 66.463 13.238 66.578V66.578L13.52 66.691 13.392 67.084 9.933 65.957 10.055 65.583C11.157 65.801 12.069 65.657 12.792 65.15 13.513 64.651 14.023 63.941 14.323 63.021 14.623 62.101 14.602 61.321 14.259 60.679 13.915 60.044 13.405 59.617 12.728 59.396V59.396C11.655 59.046 10.638 59.401 9.679 60.459V60.459L7.772 62.572C7.203 63.213 6.57 63.625 5.875 63.808 5.179 63.991 4.499 63.975 3.835 63.758V63.758C2.826 63.429 2.071 62.809 1.57 61.897 1.062 60.982 1.015 59.89 1.429 58.619V58.619C1.673 57.872 2.172 57.186 2.926 56.563V56.563C3.164 56.351 3.299 56.197 3.331 56.101V56.101C3.389 55.923 3.273 55.779 2.984 55.67V55.67L2.581 55.507 2.709 55.115 6.292 56.282 6.17 56.656C5.073 56.425 4.179 56.512 3.489 56.916 2.797 57.326 2.317 57.944 2.049 58.768 1.78 59.591 1.797 60.3 2.098 60.893 2.4 61.485 2.838 61.875 3.413 62.063 3.987 62.25 4.551 62.264 5.105 62.105 5.667 61.942 6.177 61.6 6.637 61.078V61.078L8.55 58.946C9.191 58.237 9.881 57.769 10.618 57.543 11.356 57.317 12.07 57.317 12.76 57.541V57.541C13.743 57.862 14.464 58.535 14.921 59.56 15.387 60.58 15.406 61.745 14.98 63.055ZM20.288 48.967V48.967L9.617 42.683C9.467 42.594 9.339 42.64 9.233 42.819V42.819L8.717 43.696 8.378 43.496 10.633 39.668 10.972 39.867 10.45 40.753C10.348 40.926 10.372 41.057 10.522 41.146V41.146L21.193 47.431C21.366 47.533 21.504 47.497 21.607 47.324V47.324L22.128 46.438 22.467 46.637 20.212 50.466 19.873 50.267 20.39 49.39C20.495 49.211 20.461 49.07 20.288 48.967ZM35.415 31.566L34.933 32.067 20.481 29.549 28.747 37.497C28.892 37.637 29.037 37.632 29.181 37.482V37.482L29.886 36.748 30.17 37.02 27.816 39.468 27.533 39.196 28.238 38.462C28.382 38.312 28.382 38.167 28.237 38.027V38.027L19.311 29.444C19.185 29.322 19.05 29.337 18.905 29.487V29.487L18.2 30.221 17.917 29.948 20.138 27.639 32.48 29.778 25.5 23.066C25.355 22.926 25.212 22.929 25.073 23.074V23.074L24.36 23.815 24.077 23.542 26.438 21.088 26.721 21.36 26.009 22.101C25.869 22.246 25.862 22.379 25.988 22.5V22.5ZM41.976 10.782V10.782C40.831 11.444 40.199 12.48 40.083 13.889 39.966 15.299 40.414 16.879 41.426 18.63 42.434 20.374 43.578 21.541 44.856 22.129 46.135 22.716 47.306 22.703 48.37 22.088 49.435 21.473 50.018 20.771 50.121 19.982 50.23 19.19 49.978 18.265 49.366 17.206V17.206L48.933 16.456C48.845 16.305 48.712 16.281 48.531 16.385V16.385L47.266 17.116 47.07 16.776 50.926 14.548 51.122 14.888 50.608 15.185C50.433 15.286 50.39 15.412 50.477 15.564V15.564L50.87 16.244C51.516 17.361 51.644 18.516 51.256 19.71 50.87 20.895 50.049 21.851 48.793 22.577V22.577C47.205 23.494 45.589 23.699 43.945 23.19 42.301 22.682 40.925 21.468 39.815 19.548 38.706 17.629 38.333 15.828 38.694 14.145 39.06 12.467 40.048 11.163 41.659 10.232V10.232C42.473 9.762 43.409 9.496 44.468 9.435V9.435C44.811 9.423 45.04 9.384 45.156 9.317V9.317C45.342 9.209 45.366 9.021 45.226 8.753V8.753L45.066 8.415 45.423 8.208 47.309 11.471 46.969 11.667C46.294 10.769 45.519 10.267 44.643 10.16 43.767 10.054 42.878 10.261 41.976 10.782ZM70.214 13.575V13.575L68.767 7.892 62.596 9.464 64.043 15.147C64.093 15.343 64.216 15.415 64.411 15.366V15.366L65.407 15.112 65.504 15.493 61.198 16.59 61.101 16.209 62.087 15.958C62.289 15.906 62.365 15.783 62.315 15.588V15.588L59.258 3.587C59.215 3.418 59.092 3.359 58.89 3.41V3.41L57.904 3.662 57.807 3.281 62.113 2.184 62.21 2.565 61.214 2.818C61.019 2.868 60.946 2.991 60.996 3.186V3.186L62.444 8.869 68.615 7.297 67.167 1.614C67.117 1.418 66.995 1.346 66.799 1.395V1.395L65.803 1.649 65.706 1.268 70.013 0.171 70.11 0.552 69.123 0.803C68.922 0.855 68.842 0.965 68.885 1.134V1.134L71.943 13.135C71.993 13.33 72.118 13.402 72.32 13.35V13.35L73.306 13.099 73.403 13.48 69.097 14.577 69 14.196 69.996 13.943C70.191 13.893 70.264 13.77 70.214 13.575ZM100.772 14.578L95.24 13.464 95.318 13.078 96.315 13.279C96.52 13.32 96.639 13.255 96.673 13.084V13.084L99.126 0.905C99.16 0.733 99.076 0.627 98.871 0.586V0.586L97.874 0.385 97.951 0 102.95 1.007C104.016 1.221 104.873 1.699 105.519 2.439 106.166 3.172 106.396 4.003 106.209 4.931V4.931C106.066 5.643 105.749 6.227 105.26 6.683 104.777 7.141 104.195 7.445 103.514 7.596V7.596C104.37 7.974 105.019 8.526 105.462 9.252 105.899 9.977 106.014 10.85 105.808 11.871 105.604 12.885 105.012 13.65 104.031 14.165 103.057 14.681 101.97 14.819 100.772 14.578ZM102.044 7.7V7.7L99.673 7.223 98.414 13.476 100.784 13.953C101.641 14.125 102.372 13.947 102.979 13.419 103.579 12.888 103.964 12.202 104.133 11.359 104.302 10.523 104.211 9.747 103.862 9.033 103.506 8.317 102.9 7.873 102.044 7.7ZM102.384 1.52V1.52L100.882 1.217 99.782 6.68 101.412 7.008C102.248 7.176 102.931 7.019 103.46 6.536 103.99 6.047 104.332 5.424 104.484 4.666 104.638 3.902 104.551 3.23 104.222 2.65 103.892 2.077 103.279 1.7 102.384 1.52ZM119.077 21.172L113.048 18.317 113.216 17.962 114.136 18.397C114.324 18.487 114.461 18.44 114.548 18.258V18.258L119.848 7.066C119.923 6.908 119.866 6.785 119.678 6.696V6.696L118.758 6.26 118.927 5.905 122.943 7.807 122.774 8.162 121.845 7.722C121.663 7.636 121.535 7.672 121.46 7.829V7.829L116.125 19.094 120.05 20.953C120.39 21.114 120.64 21.058 120.799 20.784V20.784L122.191 18.622 122.637 18.834 122.201 19.753C121.652 20.913 121.312 21.789 121.18 22.38V22.38C120.816 22.067 120.115 21.664 119.077 21.172ZM130.393 26.503C130.317 24.793 130.993 23.085 132.419 21.379 133.85 19.669 135.414 18.7 137.111 18.473 138.807 18.245 140.366 18.727 141.789 19.916 143.205 21.102 143.952 22.549 144.028 24.259 144.104 25.969 143.426 27.68 141.995 29.39 140.568 31.095 139.007 32.062 137.31 32.289 135.614 32.516 134.057 32.037 132.64 30.852 131.218 29.662 130.469 28.213 130.393 26.503ZM137.877 19.692C136.484 20.059 135.139 21.018 133.841 22.569 132.548 24.115 131.844 25.606 131.729 27.042 131.609 28.483 132.028 29.605 132.987 30.406 133.95 31.212 135.133 31.431 136.536 31.063 137.939 30.705 139.288 29.753 140.581 28.207 141.878 26.656 142.579 25.158 142.684 23.714 142.799 22.268 142.375 21.142 141.411 20.336 140.453 19.534 139.275 19.32 137.877 19.692ZM157.818 39.035V39.035C157.082 37.936 156.006 37.375 154.592 37.352 153.178 37.33 151.631 37.881 149.951 39.007 148.277 40.129 147.19 41.347 146.688 42.662 146.186 43.977 146.278 45.145 146.962 46.166 147.646 47.187 148.386 47.723 149.179 47.773 149.977 47.829 150.883 47.516 151.899 46.836V46.836L152.619 46.353C152.764 46.256 152.779 46.121 152.663 45.948V45.948L151.849 44.734 152.176 44.515 154.655 48.215 154.329 48.434 153.998 47.94C153.886 47.772 153.757 47.737 153.612 47.835V47.835L152.959 48.272C151.888 48.99 150.743 49.195 149.526 48.887 148.318 48.581 147.31 47.825 146.502 46.62V46.62C145.481 45.096 145.17 43.498 145.568 41.824 145.966 40.15 147.086 38.695 148.928 37.461 150.769 36.227 152.541 35.734 154.245 35.984 155.943 36.237 157.31 37.136 158.346 38.682V38.682C158.869 39.463 159.197 40.38 159.328 41.432V41.432C159.362 41.773 159.417 41.999 159.492 42.111V42.111C159.611 42.289 159.8 42.3 160.059 42.143V42.143L160.386 41.96 160.616 42.303 157.485 44.402 157.266 44.075C158.118 43.343 158.568 42.536 158.616 41.654 158.664 40.773 158.398 39.9 157.818 39.035ZM154.656 63.17V63.17C154.336 62.264 154.263 61.271 154.436 60.191V60.191C154.481 59.833 154.484 59.6 154.446 59.493V59.493C154.375 59.29 154.19 59.231 153.892 59.315V59.315L153.6 59.396 153.462 59.007 156.892 57.795 157.023 58.165C156.016 58.664 155.38 59.334 155.115 60.175 154.847 61.011 154.875 61.885 155.197 62.797 155.52 63.709 156.012 64.315 156.674 64.615 157.333 64.909 157.999 64.938 158.67 64.701V64.701C159.734 64.324 160.325 63.425 160.441 62.001V62.001L160.667 59.164C160.729 58.309 160.979 57.597 161.419 57.028 161.86 56.459 162.409 56.058 163.068 55.826V55.826C164.068 55.472 165.045 55.504 165.998 55.923 166.957 56.339 167.66 57.177 168.105 58.437V58.437C168.367 59.178 168.389 60.026 168.17 60.979V60.979C168.11 61.293 168.097 61.497 168.13 61.592V61.592C168.193 61.769 168.372 61.813 168.668 61.722V61.722L169.087 61.606 169.224 61.996 165.671 63.252 165.54 62.881C166.551 62.396 167.207 61.783 167.509 61.042 167.807 60.295 167.812 59.513 167.524 58.696 167.235 57.879 166.79 57.327 166.19 57.041 165.59 56.754 165.005 56.712 164.435 56.913 163.865 57.115 163.409 57.447 163.067 57.91 162.721 58.381 162.524 58.964 162.477 59.657V59.657L162.258 62.513C162.181 63.467 161.919 64.257 161.472 64.886 161.024 65.514 160.458 65.95 159.774 66.191V66.191C158.799 66.536 157.818 66.441 156.831 65.906 155.84 65.38 155.115 64.468 154.656 63.17Z" fill="#89939e" data-fill-palette-color="accent"></path><path d="M0.816 87.117c0-2.953 2.394-5.346 5.347-5.347 2.953 0 5.346 2.394 5.346 5.347 0 2.953-2.394 5.346-5.346 5.346-2.953 0-5.346-2.394-5.347-5.346zM158.757 87.117c0-2.953 2.394-5.346 5.346-5.347 2.953 0 5.346 2.394 5.347 5.347 0 2.953-2.394 5.346-5.347 5.346-2.953 0-5.346-2.394-5.346-5.346z" fill="#89939e" data-fill-palette-color="accent"></path></svg></g></svg></g></svg></g><defs></defs></svg><rect width="395.52" height="113.50522900096013" fill="none" stroke="none" visibility="hidden"></rect></g></svg></g></svg>